<svg viewBox="0 0 833 92" fill="none" xmlns="http://www.w3.org/2000/svg" role="img"><path d="M60.703 3.365h-7.266a2.218 2.218 0 0 0-1.576.657 2.246 2.246 0 0 0-.653 1.586v33.36H11.725V5.608a2.254 2.254 0 0 0-.653-1.586 2.23 2.23 0 0 0-1.577-.657H2.23c-.592 0-1.159.236-1.577.657A2.25 2.25 0 0 0 0 5.608v79.397c0 .595.235 1.166.653 1.587.418.42.985.657 1.577.657h7.265c.591 0 1.158-.237 1.577-.657a2.25 2.25 0 0 0 .653-1.587V50.55h39.483v34.48a2.256 2.256 0 0 0 .653 1.587 2.23 2.23 0 0 0 1.576.657h7.266c.59 0 1.158-.236 1.576-.657a2.25 2.25 0 0 0 .653-1.586V5.633a2.25 2.25 0 0 0-.653-1.586 2.223 2.223 0 0 0-1.577-.657M103.781 76.978c-9.207 0-18.514-7.134-18.514-20.77s9.307-20.782 18.514-20.782c9.206 0 18.401 7.146 18.401 20.782s-9.257 20.77-18.401 20.77Zm0-53.134c-17.25 0-30.239 13.863-30.239 32.364 0 18.501 12.99 32.25 30.239 32.25 17.248 0 30.125-13.862 30.125-32.25 0-18.387-12.952-32.364-30.125-32.364ZM153.911 3.365h-7.265c-.592 0-1.159.236-1.577.657a2.25 2.25 0 0 0-.653 1.586v79.397c0 .595.235 1.166.653 1.587.418.42.985.657 1.577.657h7.265c.591 0 1.158-.237 1.576-.657.419-.421.654-.992.654-1.587V5.608c0-.595-.235-1.165-.654-1.586a2.222 2.222 0 0 0-1.576-.657ZM180.216 3.365h-7.278a2.221 2.221 0 0 0-1.568.661c-.416.42-.649.99-.649 1.582v79.397c0 .593.233 1.162.649 1.582.415.42.979.658 1.568.662h7.278c.591 0 1.159-.237 1.577-.657a2.25 2.25 0 0 0 .653-1.587V5.608a2.25 2.25 0 0 0-.653-1.586 2.224 2.224 0 0 0-1.577-.657ZM292.74 23.844a23.492 23.492 0 0 0-16.447 6.995l-.413-3.705a2.238 2.238 0 0 0-.742-1.381 2.212 2.212 0 0 0-1.463-.547h-5.612c-.591 0-1.158.236-1.576.657-.419.42-.654.99-.654 1.586V85.03c0 .595.235 1.165.654 1.586.418.42.985.657 1.576.657h7.265c.592 0 1.159-.236 1.577-.657a2.25 2.25 0 0 0 .653-1.586V49.743a13.94 13.94 0 0 1 .992-5.424 13.888 13.888 0 0 1 3.015-4.605 13.78 13.78 0 0 1 4.562-3.059 13.707 13.707 0 0 1 5.385-1.027c8.669 0 12.89 4.827 12.89 14.758V85.03c0 .595.235 1.165.653 1.586.418.42.985.657 1.577.657h7.265c.591 0 1.158-.236 1.577-.657a2.25 2.25 0 0 0 .653-1.586V47.059c0-13.662-9.633-23.215-23.437-23.215M355.497 76.978c-10.234 0-17.65-8.734-17.65-20.77 0-12.237 7.253-20.782 17.65-20.782 10.171 0 17.537 8.696 17.537 20.669 0 11.972-7.378 20.883-17.537 20.883Zm26.831-73.613h-7.265c-.591 0-1.159.236-1.577.657a2.25 2.25 0 0 0-.653 1.586v25.206a26.563 26.563 0 0 0-18.188-6.995c-13.779 0-28.535 11.343-28.535 32.364a33.974 33.974 0 0 0 8.668 23.441 27.565 27.565 0 0 0 9.034 6.463 27.411 27.411 0 0 0 10.833 2.359 26.318 26.318 0 0 0 10.417-2.03 26.452 26.452 0 0 0 8.786-5.985l.488 4.814c.059.551.317 1.062.726 1.434.409.372.94.58 1.492.582h5.774c.589 0 1.155-.234 1.572-.652.418-.418.655-.985.658-1.578V5.633a2.25 2.25 0 0 0-.653-1.586 2.222 2.222 0 0 0-1.577-.657M689.223 24.147a20.947 20.947 0 0 0-4.121-.303c-2.959.032-5.869.761-8.497 2.129a18.961 18.961 0 0 0-6.635 5.748l-.501-4.524a2.22 2.22 0 0 0-.73-1.433 2.195 2.195 0 0 0-1.5-.558h-5.549c-.591 0-1.158.236-1.577.657a2.25 2.25 0 0 0-.653 1.586V85.03c0 .595.235 1.165.653 1.586.419.42.986.657 1.577.657h7.215c.592 0 1.159-.236 1.577-.657a2.25 2.25 0 0 0 .653-1.586V50.045c-.113-8.67 5.386-14.619 13.917-14.619 1.129 0 2.256.097 3.369.29 1.666.277 2.606-.453 2.606-2.205V26.34c0-1.172-.213-1.866-1.854-2.193M650.529 24.147a21.158 21.158 0 0 0-4.134-.303 18.832 18.832 0 0 0-8.461 2.143 18.96 18.96 0 0 0-6.608 5.734l-.501-4.524a2.22 2.22 0 0 0-.748-1.45 2.195 2.195 0 0 0-1.532-.541h-5.561c-.592 0-1.159.236-1.577.657a2.25 2.25 0 0 0-.653 1.586V85.03c0 .595.235 1.165.653 1.586.418.42.985.657 1.577.657h7.278c.591 0 1.158-.236 1.576-.657a2.25 2.25 0 0 0 .653-1.586V50.045c-.125-8.67 5.387-14.619 13.904-14.619 1.134 0 2.265.097 3.383.29 1.653.277 2.605-.453 2.592-2.205V26.34c0-1.172-.212-1.866-1.841-2.193ZM703.779 50.197c1.979-8.822 8.705-14.872 17.035-14.872 6.501 0 13.516 3.958 14.631 14.872h-31.666Zm17.136-26.353c-18.189 0-29.462 14.57-29.462 32.68 0 19.584 11.724 31.935 30.226 31.935a38.088 38.088 0 0 0 21.294-5.76 2.07 2.07 0 0 0 .852-1.764v-9.263a1.395 1.395 0 0 0-.165-.847 1.38 1.38 0 0 0-1.484-.68c-.287.06-.547.21-.743.43a31.194 31.194 0 0 1-18.79 6.465c-10.973 0-17.274-5.96-19.002-15.728h41.074a2.235 2.235 0 0 0 1.542-.588c.421-.386.68-.92.725-1.491.113-1.26.213-2.596.213-4.083 0-15.565-8.117-31.28-26.306-31.28M786.427 76.801a29.49 29.49 0 0 1-4.873.504c-7.165 0-10.81-3.844-10.81-11.418V36.182H785.3a2.215 2.215 0 0 0 1.576-.657 2.246 2.246 0 0 0 .653-1.586v-6.566a2.247 2.247 0 0 0-.679-1.537 2.222 2.222 0 0 0-1.55-.63h-14.556V12.01a2.257 2.257 0 0 0-.653-1.586 2.232 2.232 0 0 0-1.576-.657H761.6a2.214 2.214 0 0 0-1.577.657 2.244 2.244 0 0 0-.653 1.586v13.196h-6.852c-.589 0-1.154.234-1.572.652a2.247 2.247 0 0 0-.657 1.578v6.566c0 .595.235 1.166.653 1.586.418.421.985.657 1.576.657h6.539v29.856c0 13.573 8.506 22.358 21.683 22.358 2.194.05 4.387-.145 6.539-.58.5-.098.951-.37 1.271-.769a2.19 2.19 0 0 0 .483-1.411v-6.692c0-1.84-.689-2.521-2.606-2.206ZM829.743 76.801a29.48 29.48 0 0 1-4.873.504c-7.165 0-10.81-3.844-10.81-11.418V36.182h14.556a2.215 2.215 0 0 0 1.576-.657 2.246 2.246 0 0 0 .654-1.586v-6.566a2.253 2.253 0 0 0-.68-1.537 2.222 2.222 0 0 0-1.55-.63H814.06V12.01a2.238 2.238 0 0 0-.653-1.586 2.232 2.232 0 0 0-1.576-.657h-6.953a2.221 2.221 0 0 0-2.059 1.385c-.113.272-.17.564-.17.858v13.196h-6.852c-.589 0-1.155.234-1.572.652a2.252 2.252 0 0 0-.658 1.578v6.566c0 .595.235 1.166.653 1.586.418.421.985.657 1.577.657h6.539v29.856c0 13.573 8.505 22.358 21.683 22.358 2.194.05 4.387-.145 6.538-.58a2.15 2.15 0 0 0 1.29-.76c.327-.4.5-.903.489-1.42v-6.692c0-1.84-.676-2.521-2.593-2.206ZM514.832 75.616h-21.671V50.474h21.696c8.668 0 13.127 6.1 13.127 12.603s-4.384 12.666-13.152 12.54Zm-21.671-60.493h19.529c8.167 0 11.912 5.671 11.912 11.607 0 5.936-3.633 11.81-11.925 11.771h-19.466l-.05-23.378Zm35.5 28.533c5.574-3.78 8.543-11.343 8.543-17.53 0-13.549-9.458-22.685-23.525-22.685h-30.965c-.473 0-.927.188-1.262.523-.336.335-.526.79-.529 1.266v80.254c.003.476.193.931.529 1.267.335.335.789.523 1.262.523h31.729c17.387 0 26.205-10.082 26.205-24.147 0-10.863-6-17.114-11.937-19.547" fill="#00594C"></path><path d="M462.897 44.387a13.34 13.34 0 0 0-5.198-2.52 14.142 14.142 0 0 0 4.209-2.156 15.32 15.32 0 0 0 3.758-3.982 18.551 18.551 0 0 0 2.142-5.041c.516-1.748.79-3.559.814-5.382a15.14 15.14 0 0 0-.889-5.04 9.873 9.873 0 0 0-3.007-4.273 7.05 7.05 0 0 0-4.722-1.727 6.243 6.243 0 0 0-4.259 1.702 5.855 5.855 0 0 0-1.929 4.197 7.176 7.176 0 0 0 1.465 4.662 5.645 5.645 0 0 0 4.435 1.815 5.264 5.264 0 0 0 3.432-1.134c.244-.23.548-.382.877-.441.689 0 .789.769.789 1.26a5.523 5.523 0 0 1-.758 2.703c-.48.82-1.165 1.5-1.985 1.973a17.183 17.183 0 0 1-5.236 2.394c-1.253.34-2.506.593-3.758.857-.689.139-1.353.278-1.992.429-1.252.277-2.442.642-3.62.995-.952.29-1.916.58-2.868.832-1.328.31-2.627.732-3.884 1.26a14.15 14.15 0 0 0-4.522 3.088 7.16 7.16 0 0 0-1.916 5.041c0 2.03.513 3.05 1.415 3.05s1.579-.743 2.293-1.487a8.497 8.497 0 0 1 6.263-2.52 9.826 9.826 0 0 1 5.549 1.6 10.078 10.078 0 0 1 3.633 4.587 13.94 13.94 0 0 1 1.34 5.684c-.042 1.907-.35 3.8-.915 5.621a26.332 26.332 0 0 1-2.079 5.318 40.115 40.115 0 0 1-2.969 4.878c-1.052 1.449-2.417 2.923-3.758 4.36a111.883 111.883 0 0 1-4.008 4.083 64.312 64.312 0 0 1-4.171 3.693 8.6 8.6 0 0 1-4.046 2.016 8.158 8.158 0 0 1-4.146-2.029c-1.529-1.26-2.694-2.319-4.159-3.705-1.466-1.386-2.505-2.596-3.758-3.856l-1.127-1.424a40.535 40.535 0 0 1-2.831-3.201 40.73 40.73 0 0 1-3.195-4.827 26.93 26.93 0 0 1-2.329-5.268 18.476 18.476 0 0 1-.94-5.659 13.942 13.942 0 0 1 1.19-5.696 10.068 10.068 0 0 1 3.758-4.487 9.627 9.627 0 0 1 5.474-1.5 10.367 10.367 0 0 1 3.996.618 8.042 8.042 0 0 1 3.357 2.243 2.259 2.259 0 0 0 1.691 1.034c.927 0 1.628-1.122 1.628-2.735 0-2.785-1.866-5.142-3.645-7.058-1.002-1.096-2.117-2.193-3.294-3.34-.601-.58-1.253-1.184-1.817-1.789a19.308 19.308 0 0 1-3.97-5.255 19.802 19.802 0 0 1-1.253-4.147 19.858 19.858 0 0 1-.501-4.297 20.729 20.729 0 0 1 .839-5.873 16.739 16.739 0 0 1 2.593-5.13 14.043 14.043 0 0 1 4.259-3.78 11.123 11.123 0 0 1 5.462-1.462c1.921-.076 3.84.201 5.661.82a9.737 9.737 0 0 1 4.497 3.54 10.128 10.128 0 0 1 1.479 5.684c0 2.52-1.554 5.407-3.545 5.407-1.416 0-2.042-2.13-2.769-3a4.453 4.453 0 0 0-3.758-1.6 5.149 5.149 0 0 0-2.432.582 5.192 5.192 0 0 0-1.877 1.661 7.602 7.602 0 0 0-1.478 4.84 7.72 7.72 0 0 0 2.505 5.91 8.278 8.278 0 0 0 2.794 1.736 8.233 8.233 0 0 0 3.244.508c1.954.08 3.905-.233 5.737-.92a14.59 14.59 0 0 0 4.898-3.328 14.092 14.092 0 0 0 2.994-4.965 15.208 15.208 0 0 0 1.102-5.558c.044-1.899-.271-3.79-.927-5.57a12.609 12.609 0 0 0-3.081-4.714 15.311 15.311 0 0 0-4.861-3.087 22.113 22.113 0 0 0-5.373-1.576 36.224 36.224 0 0 0-5.65-.529c-1.915.05-3.822.269-5.699.655-1.894.297-3.751.8-5.537 1.5a22.488 22.488 0 0 0-5.01 2.823 20.371 20.371 0 0 0-4.084 4.096 18.982 18.982 0 0 0-3.67 11.015c.004 2.054.36 4.092 1.052 6.024a16.822 16.822 0 0 0 3.094 5.23 25.424 25.424 0 0 0 4.359 4.222 48.045 48.045 0 0 0 4.435 2.848 22.07 22.07 0 0 0-4.485 0c-1.759.179-3.489.581-5.148 1.197a19.287 19.287 0 0 0-4.597 2.622 18.157 18.157 0 0 0-3.758 3.78 16.838 16.838 0 0 0-2.28 4.764 17.129 17.129 0 0 0-.952 5.205c.011 1.827.234 3.645.664 5.42a27.696 27.696 0 0 0 1.766 5.167 35.446 35.446 0 0 0 2.731 4.7 43.044 43.044 0 0 0 3.131 4.45 42.389 42.389 0 0 0 3.357 3.352c1.416 1.323 3.12 2.81 4.648 3.97a60.703 60.703 0 0 0 4.772 3.301 43.35 43.35 0 0 0 4.41 2.52c1.778.82 3.62 1.4 5.123 1.93 1.724.634 3.539.983 5.374 1.033a19.559 19.559 0 0 0 5.323-.996 35.154 35.154 0 0 0 5.011-2.017 45.31 45.31 0 0 0 4.66-2.646 49.995 49.995 0 0 0 4.396-3.075 50.1 50.1 0 0 0 4.134-3.428 52.954 52.954 0 0 0 3.833-4.386 39.434 39.434 0 0 0 2.969-3.932 34.466 34.466 0 0 0 2.367-4.84 28.802 28.802 0 0 0 1.817-5.04 24.36 24.36 0 0 0 .476-5.382 16.805 16.805 0 0 0-1.253-6.402 12.974 12.974 0 0 0-3.858-5.218" fill="#93C90E"></path><path d="M577.2 76.978c-10.234 0-17.662-8.734-17.662-20.77 0-12.237 7.265-20.782 17.662-20.782 10.159 0 17.537 8.696 17.537 20.669 0 11.972-7.391 20.883-17.537 20.883Zm26.831-51.772h-6.438a2.209 2.209 0 0 0-1.493.57c-.41.371-.668.882-.724 1.433L595 31.33a26.22 26.22 0 0 0-18.614-7.486c-13.779 0-28.523 11.343-28.523 32.364 0 17.077 11.512 32.25 28.523 32.25A26.296 26.296 0 0 0 595 80.999l.438 4.26c.056.552.314 1.064.723 1.437.41.372.942.579 1.495.579h6.438a2.222 2.222 0 0 0 1.544-.675 2.25 2.25 0 0 0 .636-1.568V27.386a2.253 2.253 0 0 0-.68-1.55 2.222 2.222 0 0 0-1.563-.63ZM222.317 76.978c-10.234 0-17.649-8.734-17.649-20.77 0-12.237 7.252-20.782 17.649-20.782 10.171 0 17.537 8.696 17.537 20.669 0 11.972-7.378 20.883-17.537 20.883Zm26.831-51.772h-6.438a2.223 2.223 0 0 0-1.464.555 2.25 2.25 0 0 0-.741 1.385l-.426 4.184a26.219 26.219 0 0 0-18.601-7.486c-13.779 0-28.535 11.343-28.535 32.364 0 17.077 11.512 32.25 28.535 32.25a26.22 26.22 0 0 0 18.589-7.46l.438 4.26c.059.551.317 1.062.726 1.434.409.372.94.579 1.491.582h6.439c.591 0 1.158-.236 1.577-.657a2.25 2.25 0 0 0 .653-1.586V27.386a2.253 2.253 0 0 0-.68-1.55 2.222 2.222 0 0 0-1.563-.63Z" fill="#00594C"></path></svg>